<svg width="16" height="17" fill="none" xmlns="http://www.w3.org/2000/svg"><path fill-rule="evenodd" clip-rule="evenodd" d="M1.16667 2.10794c-.3682 0-.66667.29848-.66667.66667 0 .36819.29848.66666.66667.66666h1.77127l.46743 2.33539a.66396.66396 0 0 0 .01063.0531l.96738 4.83334.00012.0006c.08356.42.31212.7972.64571 1.0658.3319.2672.74674.4098 1.17262.4033h5.62067c.4259.0065.8408-.1361 1.1727-.4033.3337-.2687.5623-.6462.6458-1.0664l.001-.005.9271-4.86144a.6669.6669 0 0 0-.1412-.54985.66677.66677 0 0 0-.5137-.2417H4.61072L4.1381 2.64377c-.06236-.31157-.33595-.53583-.6537-.53583H1.16667Zm4.52431 8.29446-.81339-4.06396h8.23081l-.7756 4.06686a.49276.49276 0 0 1-.1737.2856.49257.49257 0 0 1-.3181.1087v-.0002H6.19614v-.0001l-.01277.0003a.49245.49245 0 0 1-.31807-.1087.4926.4926 0 0 1-.17413-.2876l-.00019-.0009Zm-1.13359 3.961c0-.688.55771-1.2457 1.24568-1.2457.68798 0 1.24569.5577 1.24569 1.2457 0 .6879-.55771 1.2457-1.24569 1.2457-.68797 0-1.24568-.5578-1.24568-1.2457Zm6.37331 0c0-.688.5577-1.2457 1.2457-1.2457.688 0 1.2457.5577 1.2457 1.2457 0 .6879-.5577 1.2457-1.2457 1.2457-.688 0-1.2457-.5578-1.2457-1.2457Z" fill="#2D3440"/></svg>