<svg width="16" height="16" fill="none" xmlns="http://www.w3.org/2000/svg"><path d="M13.8909 2.99447a3.66664 3.66664 0 0 0-1.1898-.79528 3.66635 3.66635 0 0 0-1.4035-.27927c-.4817 0-.9586.0949-1.40361.27927a3.66683 3.66683 0 0 0-1.18977.79528l-.70666.70667-.70667-.70667a3.66753 3.66753 0 0 0-5.18667 5.18667l.70667.70667 5.18667 5.18669 5.18664-5.18669.7067-.70667a3.66653 3.66653 0 0 0 .7953-1.18976 3.66806 3.66806 0 0 0 .2792-1.40357c0-.48166-.0949-.9586-.2792-1.40357a3.66657 3.66657 0 0 0-.7953-1.18977Z" fill="#2D3440"/></svg>