<svg width="16" height="17" fill="none" xmlns="http://www.w3.org/2000/svg"><path fill-rule="evenodd" clip-rule="evenodd" d="M9 2.52461c0-.36819.29848-.66667.66667-.66667h2.66663a1.9997 1.9997 0 0 1 1.4142.58579 1.9999 1.9999 0 0 1 .5858 1.41421v9.33336c0 .5304-.2107 1.0391-.5858 1.4142-.375.3751-.8837.5858-1.4142.5858H9.66667c-.36819 0-.66667-.2985-.66667-.6667 0-.3682.29848-.6667.66667-.6667h2.66663c.1768 0 .3464-.0702.4714-.1952A.66635.66635 0 0 0 13 13.1913V3.85794a.66637.66637 0 0 0-.1953-.4714.66662.66662 0 0 0-.4714-.19527H9.66667C9.29848 3.19127 9 2.8928 9 2.52461ZM5.86189 4.71987c.26035-.26035.68246-.26035.94281 0l3.3291 3.3291a.6892.6892 0 0 1 .0486.05313.66273.66273 0 0 1 .0804.12379c.0451.08986.0705.19132.0705.29872 0 .10862-.0259.21118-.072.30179a.6671.6671 0 0 1-.0737.11432.66753.66753 0 0 1-.0541.05978l-3.3288 3.3288c-.26035.2604-.68246.2604-.94281 0-.26035-.2603-.26035-.6824 0-.9428l2.19526-2.19523H1.66667C1.29848 9.19127 1 8.8928 1 8.52461s.29848-.66667.66667-.66667h6.39048L5.86189 5.66268c-.26035-.26035-.26035-.68246 0-.94281Z" fill="#2D3440"/></svg>