<svg width="137" height="56" fill="none" xmlns="http://www.w3.org/2000/svg"><path d="M52.7904 37.5653a3.44926 3.44926 0 0 0-1.9143.3309s-2.6713 2.2447-15.8849-.3399c-9.7143-1.9049-14.7629-1.7081-14.7629-1.7081s1.6294-11.1791 1.1842-14.3092c-.0204-.2309-.1293-.4448-.3037-.5966-.1745-.1519-.4007-.2297-.6312-.2172-.9706 0-1.5582.3756-1.5582.8943a42.56409 42.56409 0 0 1-.2226 6.3318c-.4034 1.1106-1.1606 2.0563-2.154 2.6902-.9935.6339-2.1675.9206-3.3398.8156-4.22946-.2952-5.11987-3.3538-5.49384-5.4375-.37397-2.0838-.58766-7.9059.52534-10.2848 0 0 6.3753.2236 10.3821-3.2106 4.0069-3.43419 3.7576-6.40335 1.861-7.67329s-6.3397-1.04635-9.75 2.08378C8.76961 8.65256 7.22335 10.7926 6.20438 13.195c0 0-5.01299-1.0732-3.86436-6.33186 1.21985-5.49115 8.69038-4.84723 8.69038-4.84723 1.5582.30407 1.6294.44716 2.1459-.07155.5164-.51871.8904-1.8602-1.5583-1.94068C9.16943-.07682 1.82358 1.13947.41674 6.04037c-1.50479 5.21393 1.27328 8.94323 5.00408 9.52453 0 0-2.03903 9.0327.48082 13.5043.69851 1.4131 1.79937 2.5858 3.16278 3.3693 1.36338.7834 2.92788 1.1422 4.49468 1.0308 1.4692 0 4.0692-.8228 4.8082-2.0122 0 0-.3472 3.2016-.6411 4.3643 0 0-6.1794-.0805-8.11157.8943-3.2856 1.7439-2.59998 5.831-1.33561 7.2798 1.06849 1.2341 4.28288 1.9049 6.60678.8049 1.3301-.6429 2.479-1.6097 3.3421-2.8125.8631-1.2027 1.413-2.6031 1.5997-4.0738 3.7597-.1944 7.5261.2163 11.1568 1.2163 5.4938 1.6455 13.1424 3.1837 15.4396 3.1837 2.2973 0 7.1233-.6618 7.4171-2.5846.1603-1.2699-.3116-1.9317-1.0507-2.1642ZM14.1201 7.67698s2.9205-2.23581 4.3185-.84067c.3138.34003.4948.78251.5095 1.24595.0147.46344-.1378.91662-.4294 1.27605-.5877.76909-2.137 3.20169-9.49173 4.40899 0 0 2.31503-4.07809 5.09313-6.09032Zm.2404 34.79812s-4.0335 2.209-4.45203-.787c-.1617-.6247-.10488-1.2863.16093-1.874.2658-.5876.7245-1.0658 1.2993-1.3545.7035-.3488 1.6651-.787 5.8589-.635-.047.9556-.3347 1.8835-.8361 2.6968-.5015.8134-1.2003 1.4856-2.031 1.9537Z" fill="#2D3440"/><path d="M65.5143 21.226v6.1619c-.0704.8051-.3331 1.5812-.7657 2.2626a4.98777 4.98777 0 0 1-1.0507 1.3147c-.4719.4114-.7836-.5098-.9616-.8943-1.2377-2.6025-.6411-6.0904-.1603-8.8181.2226-1.3057-2.413-.9659-2.6178.1968a26.42528 26.42528 0 0 0-.4897 7.0741 1.65878 1.65878 0 0 0-.6659.1986 1.66782 1.66782 0 0 0-.5273.4542c-.4541.9748-1.7808 4.2123-3.4102 2.9155-1.1754-.8943-1.3-3.3447-1.4247-4.7131-.1418-1.8967.1067-3.8024.7302-5.5984-.0535.152 1.015-2.531 1.4869-1.5293.1276.4773.145.9776.0509 1.4627a3.25322 3.25322 0 0 1-.594 1.3365c-1.3979 1.0553.7746 1.4935 1.6205.8496 1.6028-1.2073 2.6713-5.1066-.0623-5.5716-3.0897-.5187-4.8438 2.6114-5.4938 5.0976a16.28308 16.28308 0 0 0-.4452 4.3643c-.4274.7513-1.8699 3.1659-2.7157 3.5773-.9973.5187-.9795-.2057-.9439-.6707.0356-.4651.4808-4.6058.7213-7.3961.2107-1.1077.0543-2.2543-.4453-3.2643-.3828-.778-3.5616-2.522-6.3575.7513-1.575 1.7268-2.5389 3.9272-2.7424 6.2602-.187.3757-.3918.7781-.6322 1.2163-1.3356 2.4594-3.0185 3.4968-3.615 1.7887a13.68425 13.68425 0 0 1-.6678-5.5359c2.0747-3.2259 3.5976-6.7777 4.5054-10.5083 1.3356-5.95621 1.0863-8.91642.3651-9.41724-.7213-.50082-3.7842-1.73499-5.6274 5.58954-1.3674 5.2116-1.8461 10.6183-1.4157 15.9905-.285.6081-.6411 1.3415-1.0952 2.1732-1.3356 2.4594-3.0096 3.4968-3.6151 1.7887a13.68656 13.68656 0 0 1-.6322-5.5359c2.0748-3.2259 3.5977-6.7777 4.5055-10.5083 1.3801-6.03671 1.1041-8.99692.3829-9.49774-.7213-.50082-3.7843-1.73499-5.6185 5.58954-1.8342 7.3245-2.1993 15.3108-.4452 20.6768 0 0 .9616 3.0228 2.7603 2.7992 1.4869-.1878 3.2588-1.6545 4.3006-4.3911.1178.5378.2634 1.0692.4363 1.5919 0 0 .9616 3.0228 2.7603 2.7992 1.2198-.152 2.6712-1.1805 3.6863-3.0586.6321 1.6366 1.9945 2.987 3.7486 2.683 2.3773-.4293 2.8671-1.7261 2.8671-1.7261s-.0446 2.1285 1.478 2.1285c1.3535 0 2.4309-.7959 3.4993-2.826.3651-.6887.5788-1.0911.6946-1.3236.3116 1.9228 1.1041 3.6309 2.6712 4.3195 2.6712 1.1627 5.0041-1.0463 6.3753-3.2285.1757.5259.4624 1.0075.8404 1.4118.3781.4044.8385.7221 1.35.9314a3.3248 3.3248 0 0 0 1.7987.0571c.5935-.1467 1.1355-.4541 1.567-.8889v3.1481c-.4882-.0261-.9718.1055-1.3801.3756-1.3632 1.1234-2.4205 2.5757-3.0729 4.2211-.6525 1.6453-.8788 3.43-.6579 5.1872.0376.4754.1918.934.4488 1.335.257.401.6089.7318 1.0242.9629.4153.2312.8811.3555 1.3559.3618.4747.0063.9437-.1055 1.3649-.3255 2.7603-1.2074 3.1787-5.366 3.4103-7.9059.5609-6.1082.1246-12.4669.1246-18.593 0-1.1268-2.5822-.5992-2.5822.322ZM26.933 11.2096c.6144-2.37 1.1843-3.31798 1.7808-3.31798.5966 0 .8281.63497.4096 2.68298-.7764 3.9281-1.9983 7.7539-3.6417 11.4026 0 0 .837-8.3887 1.4513-10.7676Zm7.4973 0c.6143-2.37 1.1842-3.31798 1.7362-3.31798.5521 0 .837.63497.4185 2.68298-.4185 2.048-1.7808 7.7091-3.6417 11.4026 0 0 .8904-8.3887 1.487-10.7676Zm11.4506 11.1522c-.0713.5187-.4096 3.8366-.8904 5.6253-.4808 1.7886-.8103 2.4236-2.2528 3.0407-1.4424.6171-2.1725-1.27-2.1725-1.27-1.024-2.8618.3472-5.3659 1.4869-7.083 1.1398-1.7171 2.2884-1.8691 2.9473-1.7887.1544.0387.2996.1076.4275.2027.1279.0951.2358.2146.3177.3517.0819.137.136.2889.1594.447.0234.1581.0155.3192-.0231.4743Zm19.5622 16.0978c.0537 2.4043-.4269 4.7904-1.4068 6.9847-.6233.1252-.8904-.1073-1.1041-1.109a9.63306 9.63306 0 0 1 0-2.9065c.2912-1.7694 1.1624-3.3904 2.4753-4.6058.0445.5634.0445 1.109.0356 1.6366ZM82.1827 18.6951c-1.1581-.5132-2.2036-1.2515-3.0762-2.1725-.8726-.921-1.555-2.0063-2.008-3.1935-1.1397-3.41631 2.6-5.9383 5.5829-5.78627 2.9828.15204 4.5767 3.23747 4.452 6.00087-.0534.9749-.6678 3.1749-1.8699 2.0302-.7949-.9063-1.2815-2.0435-1.389-3.2464-.1781-1.0822-2.7602-.4383-2.5822.6975.5165 3.2733 4.0247 6.8774 7.0342 3.4521.6158-.7755 1.0488-1.6809 1.2667-2.6484a6.60031 6.60031 0 0 0-.0087-2.9381c-.2235-.96618-.6619-1.86901-1.2822-2.64083-.6204-.77182-1.4066-1.39263-2.2997-1.8159a9.08027 9.08027 0 0 0-6.2865-.12192c-2.0436.70932-3.7698 2.125-4.8703 3.99435-2.4308 4.3375 2.4486 8.5766 5.9034 10.1237 5.5472 2.9781 5.752 12.5653-1.6206 12.6279-1.5145-.0349-2.9823-.5343-4.2062-1.4311s-2.1455-2.1481-2.641-3.5861c-.5075-1.5024-.2493-6.7521 1.7808-7.1546 1.6117-.313 1.1754-1.7886-.4006-1.5114-3.3035.644-4.5233 4.9278-4.2028 7.9237.5165 4.7757 4.9685 7.4498 9.4651 7.414 1.9893.0574 3.9359-.5864 5.5021-1.8197 1.5662-1.2334 2.6532-2.9784 3.0725-4.9325.3308-1.9248-.0197-3.9052-.9906-5.5975-.971-1.6924-2.5012-2.99-4.3252-3.6676Z" fill="#2D3440"/><path d="M98.7265 32.9059c-2.5377-1.3952-1.0863-6.7701-.7034-8.836.2493-1.3325 1.3801-3.3895-.4363-3.8456-2.1281-.5187-4.6569 1.5115-6.4822 3.4521a45.51982 45.51982 0 0 1 .4897-6.6895c2.8157-1.411 5.0701-3.7416 6.3931-6.6091 1.1576-2.3252 1.7274-7.15456-2.1904-5.74152-3.5616 1.25205-4.7814 5.36592-5.8944 8.66602a26.92506 26.92506 0 0 0-.9706 3.9082c-.3551.1497-.7177.2811-1.0863.3935-1.478.465-1.2822 1.261.2137.7959l.7212-.2325c-.7123 5.0172-.2315 10.2758.2227 15.2035 0 .4829 2.6712 0 2.5732-.6976-.1959-2.2-.365-4.4-.4363-6.5822.215-.0631.4089-.1837.561-.3488a20.0912 20.0912 0 0 1 2.7424-2.835c.2672-.2415.5432-.465.8192-.6797l.4096-.304c.5966-.474.7123-.483.3383 0a24.64561 24.64561 0 0 1-.552 2.5309c-.4897 2.683-1.8966 7.9505 1.1931 9.6408.6678.3399 3.0719-.6618 2.0747-1.1894Zm-5.7788-21.5622c.2761-.7959.6411-1.58295.9795-2.35206.4185-.96587 1.5404-4.26593 2.3507-2.68298.65 1.261-.374 3.32689-.8281 4.53424-.715 1.8876-1.9504 3.5317-3.5616 4.7399a33.21355 33.21355 0 0 1 1.0595-4.2391Z" fill="#2D3440"/><path d="M108.298 26.6366c0-2.9423-.329-6.7163-3.828-7.0293-3.838-.3488-5.3428 3.6846-5.3963 6.6984a.52941.52941 0 0 0 .077.3036.5259.5259 0 0 0 .2347.2062c0 2.8171.6766 6.4928 4.0156 6.4302 3.722-.0537 4.897-3.3179 4.897-6.6091Zm-4.452 4.9009c-2.172-.8943-1.976-4.6594-1.834-6.4749.013-.0912 0-.1843-.038-.2683a.48363.48363 0 0 0-.176-.2057c.268-1.7886.962-4.4716 2.547-3.139 1.264 1.091 1.291 3.7114 1.353 5.2228.054 1.0553-.08 5.5269-1.843 4.8651h-.009ZM136.346 42.7792c-.997-2.5757-3.188-3.5773-5.601-3.6846-.269-.6539-.606-1.2774-1.006-1.8602-3.481-5.1781-11.744-4.4716-17.345-1.7887 0-.8138-.08-1.6276-.116-2.4415 1.115.0904 2.233-.1089 3.249-.5789 1.015-.4699 1.893-1.1945 2.548-2.104 1.487-2.1375 1.273-5.9294.686-8.3262-.552-2.2537-2.743-1.8512-4.39-1.1-.606.2883-1.165.6683-1.656 1.1268 0-.5992.098-1.2073.142-1.7886.098-1.3773-2.529-1.0285-2.618.1878-.409 5.5359-.267 11.0538-.391 16.5808-1.58 1.3039-2.835 2.9604-3.666 4.8376-.83 1.8771-1.212 3.923-1.116 5.9747 0 2.0302 1.719 3.5773 3.562 2.1285 2.573-1.9854 3.357-5.9293 3.713-8.9432.146-1.3451.193-2.6992.142-4.0513 2.008-1.3224 4.353-2.0344 6.754-2.0502 2.401-.0159 4.756.665 6.78 1.9608.87.6166 1.566 1.4483 2.022 2.4146-1.424.2558-2.807.7009-4.114 1.3236-1.523.7334-3.784 2.4684-3.677 4.4091-.018.6141.175 1.2155.546 1.7038.372.4884.898.834 1.493.9791.081.0414.168.0686.258.0805 5.467.8943 9.536-2.3521 8.753-6.922 2.671 1.4577 3.659 4.8382 2.715 7.7448-2.128 6.5286-10.32 7.9863-15.092 3.622-.517-.465-2.84.5187-2.431.8943 6.892 6.3229 24.059.474 19.856-10.3294Zm-26.659-1.583c-.075 1.5792-.418 3.1337-1.015 4.5969-.222.4918-.463.9658-.721 1.4309 0 0-.231.0536-.276-.6439-.004-2.5056.72-4.9578 2.084-7.0562-.018.5544-.036 1.1179-.072 1.6723Zm2.787-15.9726c.052-.044.097-.0952.134-.152.478-.8098 1.046-1.5628 1.692-2.2448.466-.5321 1.009-.9904 1.611-1.3593.285.143.579.8943.686 1.9049.276 2.4862.392 9.0326-3.508 8.4156-.304-.0137-.608.0382-.891.152-.009-2.2716.116-4.4895.276-6.7164Zm11.647 21.2313h-.054c-1.495-.3578-1.335-1.7887-1.139-2.7546.436-2.2626 3.178-3.4789 5.44-3.5772 1.149 3.2195.267 7.0741-4.247 6.3318Z" fill="#2D3440"/></svg>