<svg width="93" height="27" fill="none" xmlns="http://www.w3.org/2000/svg"><g clip-path="url(#a)" fill="#2D3440"><path d="M0 10.416v2.0833h1.98768V10.416H0ZM9.41854 3.66311c-1.26176 0-2.28152.57289-2.92104 1.40621h-.06914V0H4.78638v12.4997h1.64198V8.21161c0-1.71871 1.07163-2.95132 2.6445-2.95132 1.48644 0 2.35064 1.11109 2.35064 2.6041v4.63531h1.642V7.56926c0-2.37842-1.4692-3.90615-3.64696-3.90615ZM21.5252 3.90628h-3.8889V.86816h-1.642v3.03812h-1.5556v1.59719h1.5556v4.84363c0 1.3888.7778 2.1527 2.1778 2.1527h3.3531v-1.6145h-3.0247c-.5531 0-.8642-.3125-.8642-.8507V5.50347h3.8889V3.90628ZM33.2548 3.68066c-1.3137 0-2.316.64235-2.8692 1.66663h-.0518c-.5013-1.00691-1.4346-1.66663-2.7136-1.66663-1.1407 0-2.005.60762-2.5235 1.45831h-.0692V3.90636h-1.5728v8.59354h1.642V8.09029c0-1.61456.8468-2.79507 2.126-2.8298 1.2098-.03472 1.9185.83332 1.9185 2.13536v5.10405h1.642V7.95139c0-1.92703 1.1407-2.6909 2.1259-2.6909 1.1926 0 1.9014.83332 1.9014 2.13536v5.10405h1.6418V7.22225c0-2.08328-1.1753-3.54159-3.1975-3.54159ZM38.6776 10.2775c0 1.4062.7951 2.2222 2.2642 2.2222h1.6247v-1.5972h-1.3828c-.5531 0-.8643-.3125-.8643-.8507V0h-1.6418v10.2775ZM23.3752 15.9364h-.0692c-.6407-.863-1.6794-1.467-3.0647-1.4843-2.5454-.0345-4.3635 1.8467-4.3635 4.5045 0 2.6752 1.8527 4.5564 4.3461 4.5219 1.4198-.0174 2.4414-.6559 3.0821-1.5707h.0692v1.3289h1.6278v-8.543h-1.6278v1.2427Zm-2.9089 5.9543c-1.8007 0-2.9435-1.3118-2.9435-2.9341 0-1.6223 1.1428-2.9339 2.9435-2.9339 1.7489 0 2.8918 1.3116 2.8918 2.9339 0 1.6052-1.1429 2.9341-2.8918 2.9341ZM35.752 17.8003c-.3983-1.933-2.1125-3.3482-4.3634-3.3482-2.7185 0-4.5365 1.9848-4.5365 4.5046 0 2.5197 1.818 4.5218 4.5365 4.5218 2.2509 0 3.9651-1.4498 4.3634-3.4h-1.7142c-.3463 1.0873-1.3679 1.8293-2.6319 1.8293-1.7662 0-2.9091-1.3289-2.9091-2.9511 0-1.6224 1.1429-2.934 2.9091-2.934 1.3159 0 2.2856.7766 2.6319 1.7776h1.7142ZM44.5459 15.9364h-.0693c-.6406-.863-1.6796-1.467-3.0649-1.4843-2.5453-.0345-4.3634 1.8467-4.3634 4.5045 0 2.6752 1.8528 4.5564 4.3461 4.5219 1.4199-.0174 2.4416-.6559 3.0822-1.5707h.0693v1.3289h1.6276v-8.543h-1.6276v1.2427Zm-2.909 5.9543c-1.8009 0-2.9436-1.3118-2.9436-2.9341 0-1.6223 1.1427-2.9339 2.9436-2.9339 1.7489 0 2.8916 1.3116 2.8916 2.9339 0 1.6052-1.1427 2.9341-2.8916 2.9341ZM55.5201 16.0227h-.0692c-.6407-.9148-1.7144-1.5533-3.0823-1.5706-2.4932-.0345-4.346 1.8467-4.346 4.5218 0 2.6578 1.8181 4.5391 4.3634 4.5046 1.3505-.0174 2.4242-.6214 3.0476-1.4843h.0865v1.2425h1.6276V10.8105h-1.6276v5.2122Zm-2.9089 5.8851c-1.8009 0-2.9437-1.3115-2.9437-2.9339 0-1.6223 1.1428-2.934 2.9437-2.934 1.7489 0 2.8916 1.3289 2.8916 2.934 0 1.6224-1.1427 2.9339-2.8916 2.9339ZM63.3449 14.4521c-2.6319 0-4.4328 2.0193-4.4328 4.5218 0 2.4335 1.697 4.5046 4.4673 4.5046 2.0086 0 3.619-1.0873 4.1905-2.8996h-1.7144c-.3807.8113-1.2985 1.3289-2.4067 1.3289-1.5583 0-2.6666-1.0354-2.7878-2.3643h7.082c.225-2.8477-1.5584-5.0914-4.3981-5.0914Zm-.0347 1.5706c1.3679 0 2.3896.8457 2.6493 2.071h-5.2638c.2423-1.2081 1.264-2.071 2.6145-2.071ZM79.4126 14.4692c-1.3158 0-2.3201.6386-2.8742 1.6569h-.0521c-.502-1.001-1.4371-1.6569-2.7184-1.6569-1.1427 0-2.0086.6041-2.528 1.4498h-.0692v-1.2254H69.595v8.543h1.6449v-4.3837c0-1.605.8485-2.7786 2.1299-2.8131 1.2119-.0345 1.922.8284 1.922 2.1228v5.074h1.6449v-4.5217c0-1.9157 1.1427-2.6751 2.1297-2.6751 1.1947 0 1.9046.8284 1.9046 2.1228v5.074h1.645V17.99c0-2.071-1.1775-3.5208-3.2034-3.5208ZM88.5048 21.8729l-2.9437-7.1795H83.743l3.9133 9.3542-.0172.0345c-.2771.7076-.5888.9665-1.3507.9665h-2.0258v1.6395h2.0258c1.4891 0 2.2856-.6731 2.8397-2.1228l3.7748-9.8719h-1.6797l-2.7184 7.1795Z"/></g><defs><clipPath id="a"><path fill="#fff" d="M0 0h93v26.7107H0z"/></clipPath></defs></svg>