<svg width="32" height="32" fill="none" xmlns="http://www.w3.org/2000/svg"><path d="M0 16C0 7.16344 7.16344 0 16 0c8.8366 0 16 7.16344 16 16 0 8.8366-7.1634 16-16 16-8.83656 0-16-7.1634-16-16Z" fill="#FF2F64"/><path fill-rule="evenodd" clip-rule="evenodd" d="M9.16667 9.25c-.36819 0-.66667.29848-.66667.66667 0 .36823.29848.66663.66667.66663h1.77123l.4675 2.3354c.0028.018.0064.0357.0106.0531l.9674 4.8334.0001.0005a1.82553 1.82553 0 0 0 1.8183 1.4691h5.6207a1.82558 1.82558 0 0 0 1.8185-1.4696l.001-.005.9271-4.8615a.66678.66678 0 0 0-.1412-.5498.66674.66674 0 0 0-.5137-.2417h-9.3035l-.4726-2.36137c-.0624-.31157-.336-.53583-.6537-.53583H9.16667Zm4.52433 8.2944-.8134-4.0639h8.2308l-.7756 4.0669a.49221.49221 0 0 1-.1737.2855.49257.49257 0 0 1-.3181.1087v-.0001H14.1961v-.0001l-.0127.0002a.49257.49257 0 0 1-.3181-.1087.4919.4919 0 0 1-.1741-.2875l-.0002-.001Zm-1.1336 3.961c0-.6879.5577-1.2457 1.2457-1.2457.6879 0 1.2457.5578 1.2457 1.2457 0 .688-.5578 1.2457-1.2457 1.2457-.688 0-1.2457-.5577-1.2457-1.2457Zm6.3733 0c0-.6879.5577-1.2457 1.2457-1.2457.688 0 1.2457.5578 1.2457 1.2457 0 .688-.5577 1.2457-1.2457 1.2457-.688 0-1.2457-.5577-1.2457-1.2457Z" fill="#FCFCFC"/></svg>