<svg width="14" height="14" fill="none" xmlns="http://www.w3.org/2000/svg"><path fill-rule="evenodd" clip-rule="evenodd" d="M1.66329 6.18794c0-2.57733 2.08934-4.66666 4.66667-4.66666s4.66664 2.08933 4.66664 4.66666c0 1.25728-.4972 2.39842-1.30567 3.23755a.6735.6735 0 0 0-.12345.12345c-.83913.80846-1.98026 1.30566-3.23752 1.30566-2.57733 0-4.66667-2.08933-4.66667-4.66666Zm8.41181 4.68796c-1.02648.8211-2.32848 1.312-3.74514 1.312-3.31371 0-6-2.68625-6-5.99996s2.68629-6 6-6 6.00004 2.68629 6.00004 6c0 1.41669-.491 2.71869-1.3121 3.74514l2.4501 2.45012c.2604.2604.2604.6825 0 .9428-.2603.2604-.6825.2604-.9428 0l-2.4501-2.4501Z" fill="#2D3440"/></svg>