<svg width="48" height="48" fill="none" xmlns="http://www.w3.org/2000/svg"><circle cx="24" cy="24" r="23" stroke="#2D3440" stroke-width="2"/><path d="M24 8a8.00941 8.00941 0 0 0-5.311 2.0223 8.00949 8.00949 0 0 0-2.6325 5.0365H16v15.8871h16V15.0588h-.0565a8.00949 8.00949 0 0 0-2.6325-5.0365A8.00941 8.00941 0 0 0 24 8Zm6.1176 21.0635H17.8824v-8.6776c.1745.2105.3977.3753.6502.4803.2525.1049.5268.1468.7992.122 1.2141 0 2.0047-.6776 2.0047-1.5341v-.8188a.808.808 0 0 1 .0343-.3355.8106.8106 0 0 1 .168-.2923.80881.80881 0 0 1 .2726-.1985.80943.80943 0 0 1 .3298-.0703c.1136 0 .226.024.3298.0703a.80843.80843 0 0 1 .2725.1985c.076.0846.1332.1842.1681.2923a.81133.81133 0 0 1 .0343.3355v3.0965c.0031.2491.059.4948.1642.7207.1051.2259.257.4269.4456.5897s.4097.2838.6485.3548c.2388.071.49.0905.737.0571.241.0344.4866.018.721-.0479.2344-.066.4524-.1801.6402-.3351a1.75046 1.75046 0 0 0 .6341-1.264v-2.08a1.26877 1.26877 0 0 1 .0631-.5188c.0567-.1666.1475-.3197.2665-.4494.119-.1298.2637-.2334.4249-.3042.1611-.0709.3353-.1075.5114-.1075.176 0 .3502.0366.5113.1075.1612.0708.3059.1744.4249.3042.119.1297.2098.2828.2666.4494.0567.1667.0782.3433.063.5188a.38687.38687 0 0 0 0 .0847c.0238.1822.0944.3551.2049.5019.1105.1468.2572.2625.4257.3357V29.12l.0188-.0565ZM22.5882 38.5882A1.41178 1.41178 0 0 0 24 40a1.41178 1.41178 0 0 0 1.4118-1.4118v-6.7011h-2.8236v6.7011Z" fill="#2D3440"/></svg>